HIERARCHY
ROOT Spine
{
    OFFSET 0.0 0.0 -0.0
    CHANNELS 6 Xposition Yposition Zposition Zrotation Xrotation Yrotation
    JOINT ShoulderCenter
    {
        OFFSET 0.0 30.930742263793945 0.0
        CHANNELS 3 Zrotation Xrotation Yrotation
        JOINT LeftShoulder
        {
            OFFSET 18.556081771850586 0.0 0.0
            CHANNELS 3 Zrotation Xrotation Yrotation
            JOINT LeftElbow
            {
                OFFSET 24.320457458496094 0.0 0.0
                CHANNELS 3 Zrotation Xrotation Yrotation
                JOINT LeftHand
                {
                    OFFSET 29.86341667175293 0.0 0.0
                    CHANNELS 3 Zrotation Xrotation Yrotation
                    End Site
                    {
                        OFFSET 11.945365905761719 0.0 0.0
                    }
                }
            }
        }
        JOINT RightShoulder
        {
            OFFSET -18.556081771850586 0.0 0.0
            CHANNELS 3 Zrotation Xrotation Yrotation
            JOINT RightElbow
            {
                OFFSET -24.320457458496094 0.0 0.0
                CHANNELS 3 Zrotation Xrotation Yrotation
                JOINT RightHand
                {
                    OFFSET -29.86341667175293 0.0 0.0
                    CHANNELS 3 Zrotation Xrotation Yrotation
                    End Site
                    {
                        OFFSET -11.945365905761719 0.0 0.0
                    }
                }
            }
        }
        End Site
        {
            OFFSET 0.0 12.372296333312988 0.0
        }
    }
    JOINT LeftHip
    {
        OFFSET 19.479812126625117 -19.479812126625117 0.0
        CHANNELS 3 Zrotation Xrotation Yrotation
        JOINT LeftKnee
        {
            OFFSET 0.0 -35.15449523925781 0.0
            CHANNELS 3 Zrotation Xrotation Yrotation
            JOINT LeftFoot
            {
                OFFSET 0.0 -38.2633056640625 0.0
                CHANNELS 3 Zrotation Xrotation Yrotation
                End Site
                {
                    OFFSET 0.0 0.0 15.305322647094727
                }
            }
        }
    }
    JOINT RightHip
    {
        OFFSET -19.479812126625117 -19.479812126625117 0.0
        CHANNELS 3 Zrotation Xrotation Yrotation
        JOINT RightKnee
        {
            OFFSET 0.0 -35.15449523925781 0.0
            CHANNELS 3 Zrotation Xrotation Yrotation
            JOINT RightFoot
            {
                OFFSET 0.0 -38.2633056640625 0.0
                CHANNELS 3 Zrotation Xrotation Yrotation
                End Site
                {
                    OFFSET 0.0 0.0 15.305322647094727
                }
            }
        }
    }
}
MOTION
Frames: 11
Frame Time: 0.03333333333333333
152.6999969482422 1.3000000715255737 22.400001525878906 2.2239555168587666 2.9618928447633555 -92.92910250347589 -1.5238088407748128e-07 -4.7046385880956744e-09 0.8357183268085708 105.13403013407313 21.38220256221337 167.97795350043666 -2.02696746089866e-06 9.072126776821758e-06 31.273193454578273 -9.541664044390553e-15 6.361109362927035e-15 -6.361109362927035e-15 -101.97968973137223 -12.331414023832348 -173.21395741833706 1.6428150330379612e-06 4.55554648938778e-06 -34.16165461876742 3.1805546814635168e-15 3.1805546814635168e-15 -8.827812596100317e-32 -7.866242232113833 6.183919263607555 -18.14549168374226 -4.80717816667608 -7.944724680565898 5.58636298258585 0.0 0.0 -4.373262687012335e-15 13.417537224958757 6.2623895725255965 16.531435761510124 -4.301754537324182 -20.442648877077733 -15.416796856750198 -1.1927080055488188e-15 -4.7328799953701894e-32 4.5471992711548714e-15
152.1999969482422 1.2000000476837158 22.100000381469727 1.8476103864527114 2.9530474197385495 -93.07371230065067 1.0628454235458566e-07 -5.783244176338923e-08 0.8291717332991445 104.78259119368114 19.46137692546564 167.89001005658483 2.136425256936807e-07 3.206637658301463e-06 33.018506850107286 9.54166404439055e-15 -6.3611093629270335e-15 5.29668755766019e-31 -101.80627229455656 -11.542313451406502 -172.37145878532212 -8.712264872780192e-06 -5.433061184576713e-06 -33.03337942269589 3.531125038440127e-31 -6.361109362927033e-15 6.361109362927033e-15 -7.624448210143663 7.207075615811638 -18.684078829564996 -5.621027197861687 -8.525578193953521 5.857274892816696 1.5902773407317582e-15 -1.5902773407317582e-15 4.174478019420865e-15 13.5602366210255 6.853108418550137 16.40588270595026 -4.3696958402288475 -20.349788404134884 -15.221911249693262 5.963540027744094e-16 1.939704916135324e-34 3.727212517340059e-17
151.6999969482422 1.100000023841858 21.69999885559082 1.8416734170902156 3.1271984645510424 -93.38209632247234 2.2443562217263822e-07 1.1688294341773717e-08 0.8205490941360455 104.59158718781299 16.945698558459906 167.98648576019363 4.11405669374227e-06 1.0344350079152827e-06 35.086278587716635 6.3611093629270335e-15 -3.531125038440127e-31 -6.3611093629270335e-15 -101.52097491132947 -10.508020808319323 -171.96540699401365 -2.1474683387052167e-06 -1.4650844400141487e-06 -32.11366428445845 0.0 -3.1805546814635176e-15 0.0 -7.39247376824568 7.8697741528598675 -19.098862514453113 -7.027639402951133 -8.306986522009284 5.345537297752034 -1.5902773407317584e-15 1.5902773407317584e-15 3.975693351829396e-16 13.887531880452283 6.970809452019389 16.4446226344397 -4.134625258867847 -19.89276580761911 -14.791044470352896 -3.7272125173400595e-16 4.6472096949075465e-34 -1.4287647983136894e-16
151.10000610351562 1.100000023841858 21.299999237060547 1.8476105235362572 3.1372557031262263 -93.70950460254925 -9.814501663996813e-08 -2.1814124324240037e-07 0.8277288437146096 104.2938015430732 15.381461303088527 168.54901107121228 5.830854555710111e-06 -1.4811909937694049e-06 36.149310386858964 0.0 0.0 0.0 -101.56455000021775 -9.86296485569363 -171.35246755073211 -3.090155247097363e-06 2.3887139344053565e-06 -32.09149902100812 0.0 6.3611093629270335e-15 0.0 -7.13888518560225 8.49860058366968 -19.927456326608638 -8.713106299285082 -7.846283844956214 4.736259151200818 1.5902773407317584e-15 2.2069531490250793e-32 1.5902773407317584e-15 14.178157683906804 7.057380363082406 16.67467289516752 -4.451230170974654 -19.20987764625504 -14.32777640078488 -2.2689406199307605e-15 -1.590277340731758e-15 -8.782632745286402e-15
150.1999969482422 1.100000023841858 20.80000114440918 1.2935500650659881 2.953828953256852 -94.15879871923184 1.0588736203666986e-07 2.0129148837156135e-07 0.5166667745079513 104.1855699976201 14.513734870111037 167.88095053019023 1.8569203068932665e-06 -4.094170671860253e-06 37.232938849598355 0.0 0.0 0.0 -101.45668136574918 -9.266840161794711 -170.73052063400948 3.3085982538843717e-07 1.5656502578464508e-06 -32.04036765166981 0.0 0.0 0.0 -6.9862305278974555 9.50567744720278 -20.81812210671185 -9.681682970168392 -7.679896602279112 4.487129612516808 1.1034765745125397e-32 -1.5902773407317584e-15 7.951386703658792e-16 14.078973612140564 7.202185810289394 16.646603464069713 -4.229459045615346 -17.518069071870705 -13.044523327616028 5.963540027744092e-16 -1.5902773407317582e-15 -7.255640367088647e-15
149.10000610351562 0.8999999761581421 20.200000762939453 0.7392760173329007 2.4011177920143165 -94.91907021335835 -1.6626921911318882e-07 8.282176675997962e-08 0.3486792413636157 104.15802564872739 13.624129642503421 167.13913823315892 2.7645766232159042e-06 -1.4938664654549279e-06 37.10215023705384 0.0 0.0 0.0 -101.63363894865694 -8.10123118930045 -169.9211090379218 -1.587438223165942e-06 -1.636554211896444e-06 -33.25176968211629 3.1805546814635168e-15 -1.7655625192200634e-31 -6.3611093629270335e-15 -7.188679996522321 8.41473772813081 -19.919116050280916 -9.227966429931815 -5.785081210268508 3.52617596284696 -7.951386703658791e-16 -4.1380371544220234e-32 5.9635400277440935e-15 13.9457792247278 7.113935007843757 16.39661937555382 -4.329186306317531 -15.623706951033576 -11.649088012990394 -1.987846675914698e-16 9.939233379573489e-17 3.8266048511357935e-15
147.8000030517578 0.4000000059604645 19.400001525878906 0.5526808331715306 1.6575332900908197 -95.55568393673764 5.5333181101287185e-08 -9.976890094964755e-08 0.3689283236580844 103.7145183549343 14.067111825612368 166.62219898864677 1.1152261204964106e-07 -6.451997930423144e-06 37.72118469850587 0.0 0.0 0.0 -102.18100067772347 -8.430869590532742 -169.43950972355145 -5.382906015254902e-06 -2.314197895421848e-08 -34.22632275076737 0.0 0.0 0.0 -6.7887017295435585 3.2554103854528575 -16.378244737057614 -7.0134763253755485 2.5608880385335415 -1.887617912632281 3.975693351829396e-16 -5.862219302097867e-33 -1.6896696745274934e-15 13.667873684987601 6.955001398230568 16.467113461819114 -4.215808246330603 -13.581661208784839 -9.799351394731014 5.963540027744093e-16 1.7890620083232284e-15 6.112628528437696e-15
146.39999389648438 -0.10000000149011612 18.700000762939453 1.1052589034563747 0.7367447834501462 -95.99421445673366 3.9300898015479365e-08 5.952867532126397e-08 0.780576269122509 103.39441144146852 15.58543370495808 166.62844656348088 -1.1489522777480704e-06 -2.1353452364816237e-06 38.40450486431482 3.531125038440127e-31 6.3611093629270335e-15 -6.3611093629270335e-15 -102.53268668869138 -8.778769427024619 -169.2911180083492 1.5679099737884843e-06 -1.383555702182466e-06 -34.08775984791136 0.0 6.3611093629270335e-15 0.0 -5.48819987049744 -7.4770269189051035 -6.928856790294759 -7.694458623351196 22.88194616077354 -18.523178242688285 1.4908850069360234e-15 9.939233379573492e-17 1.714517757976427e-15 13.040194911212737 6.6126290595146315 16.92663295015381 -4.052928235326308 -12.51381852861533 -8.610479554291109 -3.975693351829396e-16 1.5902773407317584e-15 -7.454425034680117e-16
144.6999969482422 -0.6000000238418579 18.19999885559082 2.2025925856472823 5.576880392687909e-08 -95.70017636312723 3.3825360809885096e-08 -1.1254244464994053e-07 0.7653249143618055 103.23513005274286 16.745642439967515 166.53194655641684 -1.3507486654267842e-06 -2.4890850822852594e-06 38.20905690658187 0.0 0.0 -6.3611093629270335e-15 -103.22935621020319 -9.948689598696904 -169.37059344583656 3.5401255301560317e-07 3.329352083899959e-06 -33.90213742472547 0.0 0.0 0.0 -4.706797152876213 -21.181408902891228 8.88109700436835 2.4400522932426134 43.10411647918591 -41.965924560937836 3.578124016646456e-15 -7.951386703658791e-16 -5.963540027744093e-16 12.636009615142862 6.72886061575361 17.348297103570147 -4.121391383074789 -13.068132284637421 -8.4244140919472 3.975693351829396e-16 -3.2931879020608605e-32 -9.491967877492683e-15
142.40000915527344 -0.800000011920929 18.0 3.3124647706641044 -0.735650788851488 -95.44302561216217 5.311455952689135e-07 -1.309558383279733e-07 1.118430648503811 102.68391135987426 16.249936186496786 165.85249947260792 1.6929448330514596e-06 -2.5935958135175994e-06 37.95264051663779 -7.062250076880254e-31 1.2722218725854067e-14 6.3611093629270335e-15 -104.11794759726675 -10.13183782323048 -169.5672731371086 -2.4345119068385096e-06 -1.9836843140212345e-06 -33.92450995228262 6.3611093629270335e-15 0.0 0.0 -5.748409162072615 -31.5755637674468 20.44240200323955 16.909637901020393 42.044405180179155 -54.84005982011559 1.3914926731402886e-15 2.2931622564088716e-32 1.888454342118963e-15 11.87546501214082 7.829293472533831 18.07212089916036 -4.773544726656582 -14.490321753172033 -9.261768937186275 2.0690185772110117e-32 1.9878466759146976e-15 -1.1927080055488184e-15
139.5 -1.0 18.0 4.412782144708209 -1.1019731372842183 -95.30729711402901 -2.116680217229866e-08 3.730568549875006e-07 1.7675882469627997 102.27918547256205 18.23483417388754 164.97663242907348 1.7711038417702961e-06 -8.205598490295929e-06 36.78834958860348 -6.3611093629270335e-15 -6.361109362927033e-15 -1.2722218725854067e-14 -104.84900834509173 -10.121004462114515 -169.97642888020073 2.369814270213025e-06 2.891478836866561e-07 -34.68896226098058 -9.54166404439055e-15 3.1805546814635168e-15 2.648343778830095e-31 -7.0541172006001815 -37.14209802328695 24.532294807258 15.510503411963493 29.202693993149612 -41.13178671896077 -1.3103784322336408e-32 7.95138670365879e-16 1.8884543421189626e-15 11.58157923176694 9.330304124362511 19.280324099065616 -5.307784277999466 -15.649968639187348 -9.883394114858282 6.896728590703373e-33 1.5902773407317584e-15 -4.969616689786745e-16
